<svg xmlns="http://www.w3.org/2000/svg" xmlns:xlink="http://www.w3.org/1999/xlink" width="489" zoomAndPan="magnify" viewBox="0 0 366.75 183.000001" height="244" preserveAspectRatio="xMidYMid meet" version="1.0"><defs><g/></defs><g fill="#545454" fill-opacity="1"><g transform="translate(3.855977, 56.013549)"><g><path d="M 75.234375 -49.78125 L 63.84375 0 L 44.4375 0 L 38.671875 -28.265625 L 32.90625 0 L 13.5 0 L 2.109375 -49.78125 L 18.921875 -49.78125 L 23.421875 -18.421875 L 30.171875 -49.78125 L 47.1875 -49.78125 L 53.9375 -18.421875 L 58.4375 -49.78125 Z M 75.234375 -49.78125 "/></g></g></g><g fill="#545454" fill-opacity="1"><g transform="translate(79.015536, 56.013549)"><g><path d="M 19.125 -52.03125 L 19.125 0 L 3.515625 0 L 3.515625 -52.03125 Z M 19.125 -52.03125 "/></g></g></g><g fill="#545454" fill-opacity="1"><g transform="translate(99.474584, 56.013549)"><g><path d="M 1.40625 -19.828125 C 1.40625 -24.003906 2.117188 -27.625 3.546875 -30.6875 C 4.984375 -33.757812 6.941406 -36.101562 9.421875 -37.71875 C 11.910156 -39.34375 14.703125 -40.15625 17.796875 -40.15625 C 20.367188 -40.15625 22.59375 -39.625 24.46875 -38.5625 C 26.34375 -37.507812 27.773438 -36.070312 28.765625 -34.25 L 28.765625 -39.65625 L 44.296875 -39.65625 L 44.296875 0 L 28.765625 0 L 28.765625 -5.421875 C 27.773438 -3.585938 26.34375 -2.140625 24.46875 -1.078125 C 22.59375 -0.0234375 20.367188 0.5 17.796875 0.5 C 14.703125 0.5 11.910156 -0.304688 9.421875 -1.921875 C 6.941406 -3.546875 4.984375 -5.894531 3.546875 -8.96875 C 2.117188 -12.039062 1.40625 -15.660156 1.40625 -19.828125 Z M 28.765625 -19.828125 C 28.765625 -21.941406 28.222656 -23.582031 27.140625 -24.75 C 26.066406 -25.925781 24.6875 -26.515625 23 -26.515625 C 21.3125 -26.515625 19.925781 -25.925781 18.84375 -24.75 C 17.769531 -23.582031 17.234375 -21.941406 17.234375 -19.828125 C 17.234375 -17.722656 17.769531 -16.082031 18.84375 -14.90625 C 19.925781 -13.738281 21.3125 -13.15625 23 -13.15625 C 24.6875 -13.15625 26.066406 -13.738281 27.140625 -14.90625 C 28.222656 -16.082031 28.765625 -17.722656 28.765625 -19.828125 Z M 28.765625 -19.828125 "/></g></g></g><g fill="#545454" fill-opacity="1"><g transform="translate(145.104325, 56.013549)"><g><path d="M 1.40625 -19.828125 C 1.40625 -24.003906 2.117188 -27.625 3.546875 -30.6875 C 4.984375 -33.757812 6.941406 -36.101562 9.421875 -37.71875 C 11.910156 -39.34375 14.703125 -40.15625 17.796875 -40.15625 C 20.367188 -40.15625 22.582031 -39.625 24.4375 -38.5625 C 26.289062 -37.507812 27.707031 -36.070312 28.6875 -34.25 L 28.6875 -52.03125 L 44.296875 -52.03125 L 44.296875 0 L 28.6875 0 L 28.6875 -5.421875 C 27.707031 -3.585938 26.289062 -2.140625 24.4375 -1.078125 C 22.582031 -0.0234375 20.367188 0.5 17.796875 0.5 C 14.703125 0.5 11.910156 -0.304688 9.421875 -1.921875 C 6.941406 -3.546875 4.984375 -5.894531 3.546875 -8.96875 C 2.117188 -12.039062 1.40625 -15.660156 1.40625 -19.828125 Z M 28.765625 -19.828125 C 28.765625 -21.941406 28.222656 -23.582031 27.140625 -24.75 C 26.066406 -25.925781 24.6875 -26.515625 23 -26.515625 C 21.3125 -26.515625 19.925781 -25.925781 18.84375 -24.75 C 17.769531 -23.582031 17.234375 -21.941406 17.234375 -19.828125 C 17.234375 -17.722656 17.769531 -16.082031 18.84375 -14.90625 C 19.925781 -13.738281 21.3125 -13.15625 23 -13.15625 C 24.6875 -13.15625 26.066406 -13.738281 27.140625 -14.90625 C 28.222656 -16.082031 28.765625 -17.722656 28.765625 -19.828125 Z M 28.765625 -19.828125 "/></g></g></g><g fill="#545454" fill-opacity="1"><g transform="translate(190.734065, 56.013549)"><g><path d="M 41.90625 -20.1875 C 41.90625 -19.101562 41.835938 -18.070312 41.703125 -17.09375 L 16.59375 -17.09375 C 16.832031 -13.664062 18.265625 -11.953125 20.890625 -11.953125 C 22.578125 -11.953125 23.796875 -12.726562 24.546875 -14.28125 L 41.0625 -14.28125 C 40.5 -11.46875 39.316406 -8.945312 37.515625 -6.71875 C 35.710938 -4.488281 33.4375 -2.726562 30.6875 -1.4375 C 27.945312 -0.144531 24.9375 0.5 21.65625 0.5 C 17.71875 0.5 14.210938 -0.320312 11.140625 -1.96875 C 8.078125 -3.613281 5.6875 -5.96875 3.96875 -9.03125 C 2.257812 -12.101562 1.40625 -15.703125 1.40625 -19.828125 C 1.40625 -23.953125 2.257812 -27.550781 3.96875 -30.625 C 5.6875 -33.695312 8.078125 -36.050781 11.140625 -37.6875 C 14.210938 -39.332031 17.71875 -40.15625 21.65625 -40.15625 C 25.59375 -40.15625 29.097656 -39.34375 32.171875 -37.71875 C 35.242188 -36.101562 37.632812 -33.796875 39.34375 -30.796875 C 41.050781 -27.796875 41.90625 -24.257812 41.90625 -20.1875 Z M 26.09375 -23.90625 C 26.09375 -25.21875 25.671875 -26.210938 24.828125 -26.890625 C 23.984375 -27.578125 22.925781 -27.921875 21.65625 -27.921875 C 18.894531 -27.921875 17.28125 -26.582031 16.8125 -23.90625 Z M 26.09375 -23.90625 "/></g></g></g><g fill="#545454" fill-opacity="1"><g transform="translate(231.864021, 56.013549)"><g><path d="M 56.46875 -39.9375 C 61.53125 -39.9375 65.453125 -38.410156 68.234375 -35.359375 C 71.023438 -32.316406 72.421875 -28.195312 72.421875 -23 L 72.421875 0 L 56.890625 0 L 56.890625 -21.03125 C 56.890625 -22.71875 56.382812 -24.039062 55.375 -25 C 54.363281 -25.957031 53.015625 -26.4375 51.328125 -26.4375 C 49.597656 -26.4375 48.238281 -25.957031 47.25 -25 C 46.269531 -24.039062 45.78125 -22.71875 45.78125 -21.03125 L 45.78125 0 L 30.234375 0 L 30.234375 -21.03125 C 30.234375 -22.71875 29.726562 -24.039062 28.71875 -25 C 27.71875 -25.957031 26.375 -26.4375 24.6875 -26.4375 C 22.945312 -26.4375 21.582031 -25.957031 20.59375 -25 C 19.613281 -24.039062 19.125 -22.71875 19.125 -21.03125 L 19.125 0 L 3.515625 0 L 3.515625 -39.65625 L 19.125 -39.65625 L 19.125 -34.3125 C 20.25 -36 21.785156 -37.359375 23.734375 -38.390625 C 25.679688 -39.421875 27.96875 -39.9375 30.59375 -39.9375 C 33.445312 -39.9375 35.972656 -39.316406 38.171875 -38.078125 C 40.378906 -36.835938 42.140625 -35.09375 43.453125 -32.84375 C 44.910156 -34.90625 46.765625 -36.601562 49.015625 -37.9375 C 51.265625 -39.269531 53.75 -39.9375 56.46875 -39.9375 Z M 56.46875 -39.9375 "/></g></g></g><g fill="#545454" fill-opacity="1"><g transform="translate(305.336222, 56.013549)"><g><path d="M 11.390625 -42.828125 C 8.671875 -42.828125 6.488281 -43.550781 4.84375 -45 C 3.207031 -46.457031 2.390625 -48.285156 2.390625 -50.484375 C 2.390625 -52.734375 3.207031 -54.597656 4.84375 -56.078125 C 6.488281 -57.554688 8.671875 -58.296875 11.390625 -58.296875 C 14.066406 -58.296875 16.222656 -57.554688 17.859375 -56.078125 C 19.503906 -54.597656 20.328125 -52.734375 20.328125 -50.484375 C 20.328125 -48.285156 19.503906 -46.457031 17.859375 -45 C 16.222656 -43.550781 14.066406 -42.828125 11.390625 -42.828125 Z M 19.125 -39.65625 L 19.125 0 L 3.515625 0 L 3.515625 -39.65625 Z M 19.125 -39.65625 "/></g></g></g><g fill="#545454" fill-opacity="1"><g transform="translate(325.795288, 56.013549)"><g><path d="M 19.125 -32.34375 C 20.71875 -34.644531 22.660156 -36.484375 24.953125 -37.859375 C 27.253906 -39.242188 29.648438 -39.9375 32.140625 -39.9375 L 32.140625 -23.28125 L 27.703125 -23.28125 C 24.753906 -23.28125 22.585938 -22.765625 21.203125 -21.734375 C 19.816406 -20.703125 19.125 -18.875 19.125 -16.25 L 19.125 0 L 3.515625 0 L 3.515625 -39.65625 L 19.125 -39.65625 Z M 19.125 -32.34375 "/></g></g></g><g fill="#545454" fill-opacity="1"><g transform="translate(3.855977, 111.85397)"><g><path d="M 28.546875 0 L 19.203125 -17.859375 L 19.125 -17.859375 L 19.125 0 L 3.515625 0 L 3.515625 -49.78125 L 26.71875 -49.78125 C 30.75 -49.78125 34.191406 -49.066406 37.046875 -47.640625 C 39.910156 -46.210938 42.054688 -44.265625 43.484375 -41.796875 C 44.921875 -39.335938 45.640625 -36.5625 45.640625 -33.46875 C 45.640625 -30.144531 44.710938 -27.191406 42.859375 -24.609375 C 41.003906 -22.035156 38.34375 -20.1875 34.875 -19.0625 L 45.703125 0 Z M 19.125 -28.265625 L 25.3125 -28.265625 C 26.8125 -28.265625 27.9375 -28.601562 28.6875 -29.28125 C 29.4375 -29.96875 29.8125 -31.035156 29.8125 -32.484375 C 29.8125 -33.796875 29.425781 -34.828125 28.65625 -35.578125 C 27.882812 -36.328125 26.769531 -36.703125 25.3125 -36.703125 L 19.125 -36.703125 Z M 19.125 -28.265625 "/></g></g></g><g fill="#545454" fill-opacity="1"><g transform="translate(48.782633, 111.85397)"><g><path d="M 11.390625 -42.828125 C 8.671875 -42.828125 6.488281 -43.550781 4.84375 -45 C 3.207031 -46.457031 2.390625 -48.285156 2.390625 -50.484375 C 2.390625 -52.734375 3.207031 -54.597656 4.84375 -56.078125 C 6.488281 -57.554688 8.671875 -58.296875 11.390625 -58.296875 C 14.066406 -58.296875 16.222656 -57.554688 17.859375 -56.078125 C 19.503906 -54.597656 20.328125 -52.734375 20.328125 -50.484375 C 20.328125 -48.285156 19.503906 -46.457031 17.859375 -45 C 16.222656 -43.550781 14.066406 -42.828125 11.390625 -42.828125 Z M 19.125 -39.65625 L 19.125 0 L 3.515625 0 L 3.515625 -39.65625 Z M 19.125 -39.65625 "/></g></g></g><g fill="#545454" fill-opacity="1"><g transform="translate(69.241685, 111.85397)"><g><path d="M 19.125 -34.25 C 20.113281 -36.070312 21.53125 -37.507812 23.375 -38.5625 C 25.226562 -39.625 27.445312 -40.15625 30.03125 -40.15625 C 33.125 -40.15625 35.910156 -39.34375 38.390625 -37.71875 C 40.878906 -36.101562 42.835938 -33.757812 44.265625 -30.6875 C 45.691406 -27.625 46.40625 -24.003906 46.40625 -19.828125 C 46.40625 -15.660156 45.691406 -12.039062 44.265625 -8.96875 C 42.835938 -5.894531 40.878906 -3.546875 38.390625 -1.921875 C 35.910156 -0.304688 33.125 0.5 30.03125 0.5 C 27.445312 0.5 25.226562 -0.0234375 23.375 -1.078125 C 21.53125 -2.140625 20.113281 -3.585938 19.125 -5.421875 L 19.125 0 L 3.515625 0 L 3.515625 -52.03125 L 19.125 -52.03125 Z M 30.59375 -19.828125 C 30.59375 -21.941406 30.050781 -23.582031 28.96875 -24.75 C 27.894531 -25.925781 26.515625 -26.515625 24.828125 -26.515625 C 23.140625 -26.515625 21.753906 -25.925781 20.671875 -24.75 C 19.597656 -23.582031 19.0625 -21.941406 19.0625 -19.828125 C 19.0625 -17.722656 19.597656 -16.082031 20.671875 -14.90625 C 21.753906 -13.738281 23.140625 -13.15625 24.828125 -13.15625 C 26.515625 -13.15625 27.894531 -13.738281 28.96875 -14.90625 C 30.050781 -16.082031 30.59375 -17.722656 30.59375 -19.828125 Z M 30.59375 -19.828125 "/></g></g></g><g fill="#545454" fill-opacity="1"><g transform="translate(114.871435, 111.85397)"><g><path d="M 41.90625 -20.1875 C 41.90625 -19.101562 41.835938 -18.070312 41.703125 -17.09375 L 16.59375 -17.09375 C 16.832031 -13.664062 18.265625 -11.953125 20.890625 -11.953125 C 22.578125 -11.953125 23.796875 -12.726562 24.546875 -14.28125 L 41.0625 -14.28125 C 40.5 -11.46875 39.316406 -8.945312 37.515625 -6.71875 C 35.710938 -4.488281 33.4375 -2.726562 30.6875 -1.4375 C 27.945312 -0.144531 24.9375 0.5 21.65625 0.5 C 17.71875 0.5 14.210938 -0.320312 11.140625 -1.96875 C 8.078125 -3.613281 5.6875 -5.96875 3.96875 -9.03125 C 2.257812 -12.101562 1.40625 -15.703125 1.40625 -19.828125 C 1.40625 -23.953125 2.257812 -27.550781 3.96875 -30.625 C 5.6875 -33.695312 8.078125 -36.050781 11.140625 -37.6875 C 14.210938 -39.332031 17.71875 -40.15625 21.65625 -40.15625 C 25.59375 -40.15625 29.097656 -39.34375 32.171875 -37.71875 C 35.242188 -36.101562 37.632812 -33.796875 39.34375 -30.796875 C 41.050781 -27.796875 41.90625 -24.257812 41.90625 -20.1875 Z M 26.09375 -23.90625 C 26.09375 -25.21875 25.671875 -26.210938 24.828125 -26.890625 C 23.984375 -27.578125 22.925781 -27.921875 21.65625 -27.921875 C 18.894531 -27.921875 17.28125 -26.582031 16.8125 -23.90625 Z M 26.09375 -23.90625 "/></g></g></g><g fill="#545454" fill-opacity="1"><g transform="translate(156.00139, 111.85397)"><g><path d="M 11.390625 -42.828125 C 8.671875 -42.828125 6.488281 -43.550781 4.84375 -45 C 3.207031 -46.457031 2.390625 -48.285156 2.390625 -50.484375 C 2.390625 -52.734375 3.207031 -54.597656 4.84375 -56.078125 C 6.488281 -57.554688 8.671875 -58.296875 11.390625 -58.296875 C 14.066406 -58.296875 16.222656 -57.554688 17.859375 -56.078125 C 19.503906 -54.597656 20.328125 -52.734375 20.328125 -50.484375 C 20.328125 -48.285156 19.503906 -46.457031 17.859375 -45 C 16.222656 -43.550781 14.066406 -42.828125 11.390625 -42.828125 Z M 19.125 -39.65625 L 19.125 0 L 3.515625 0 L 3.515625 -39.65625 Z M 19.125 -39.65625 "/></g></g></g><g fill="#545454" fill-opacity="1"><g transform="translate(176.460438, 111.85397)"><g><path d="M 19.125 -32.34375 C 20.71875 -34.644531 22.660156 -36.484375 24.953125 -37.859375 C 27.253906 -39.242188 29.648438 -39.9375 32.140625 -39.9375 L 32.140625 -23.28125 L 27.703125 -23.28125 C 24.753906 -23.28125 22.585938 -22.765625 21.203125 -21.734375 C 19.816406 -20.703125 19.125 -18.875 19.125 -16.25 L 19.125 0 L 3.515625 0 L 3.515625 -39.65625 L 19.125 -39.65625 Z M 19.125 -32.34375 "/></g></g></g><g fill="#545454" fill-opacity="1"><g transform="translate(207.11435, 111.85397)"><g><path d="M 22.359375 0.5 C 18.378906 0.5 14.796875 -0.320312 11.609375 -1.96875 C 8.421875 -3.613281 5.921875 -5.96875 4.109375 -9.03125 C 2.304688 -12.101562 1.40625 -15.703125 1.40625 -19.828125 C 1.40625 -23.953125 2.304688 -27.550781 4.109375 -30.625 C 5.921875 -33.695312 8.421875 -36.050781 11.609375 -37.6875 C 14.796875 -39.332031 18.378906 -40.15625 22.359375 -40.15625 C 26.347656 -40.15625 29.9375 -39.332031 33.125 -37.6875 C 36.3125 -36.050781 38.804688 -33.695312 40.609375 -30.625 C 42.410156 -27.550781 43.3125 -23.953125 43.3125 -19.828125 C 43.3125 -15.703125 42.410156 -12.101562 40.609375 -9.03125 C 38.804688 -5.96875 36.3125 -3.613281 33.125 -1.96875 C 29.9375 -0.320312 26.347656 0.5 22.359375 0.5 Z M 22.359375 -13.015625 C 23.816406 -13.015625 25.035156 -13.585938 26.015625 -14.734375 C 27.003906 -15.878906 27.5 -17.578125 27.5 -19.828125 C 27.5 -22.078125 27.003906 -23.773438 26.015625 -24.921875 C 25.035156 -26.078125 23.816406 -26.65625 22.359375 -26.65625 C 20.910156 -26.65625 19.691406 -26.078125 18.703125 -24.921875 C 17.722656 -23.773438 17.234375 -22.078125 17.234375 -19.828125 C 17.234375 -17.578125 17.710938 -15.878906 18.671875 -14.734375 C 19.628906 -13.585938 20.859375 -13.015625 22.359375 -13.015625 Z M 22.359375 -13.015625 "/></g></g></g><g fill="#545454" fill-opacity="1"><g transform="translate(3.855977, 167.694392)"><g><path d="M 44.234375 -32.703125 C 44.234375 -29.554688 43.503906 -26.707031 42.046875 -24.15625 C 40.597656 -21.601562 38.453125 -19.578125 35.609375 -18.078125 C 32.773438 -16.578125 29.34375 -15.828125 25.3125 -15.828125 L 19.125 -15.828125 L 19.125 0 L 3.515625 0 L 3.515625 -49.78125 L 25.3125 -49.78125 C 31.40625 -49.78125 36.082031 -48.234375 39.34375 -45.140625 C 42.601562 -42.046875 44.234375 -37.898438 44.234375 -32.703125 Z M 23.5625 -28.125 C 26.789062 -28.125 28.40625 -29.648438 28.40625 -32.703125 C 28.40625 -35.742188 26.789062 -37.265625 23.5625 -37.265625 L 19.125 -37.265625 L 19.125 -28.125 Z M 23.5625 -28.125 "/></g></g></g><g fill="#545454" fill-opacity="1"><g transform="translate(47.30616, 167.694392)"><g><path d="M 19.125 -32.34375 C 20.71875 -34.644531 22.660156 -36.484375 24.953125 -37.859375 C 27.253906 -39.242188 29.648438 -39.9375 32.140625 -39.9375 L 32.140625 -23.28125 L 27.703125 -23.28125 C 24.753906 -23.28125 22.585938 -22.765625 21.203125 -21.734375 C 19.816406 -20.703125 19.125 -18.875 19.125 -16.25 L 19.125 0 L 3.515625 0 L 3.515625 -39.65625 L 19.125 -39.65625 Z M 19.125 -32.34375 "/></g></g></g><g fill="#545454" fill-opacity="1"><g transform="translate(77.960076, 167.694392)"><g><path d="M 1.40625 -19.828125 C 1.40625 -24.003906 2.117188 -27.625 3.546875 -30.6875 C 4.984375 -33.757812 6.941406 -36.101562 9.421875 -37.71875 C 11.910156 -39.34375 14.703125 -40.15625 17.796875 -40.15625 C 20.367188 -40.15625 22.59375 -39.625 24.46875 -38.5625 C 26.34375 -37.507812 27.773438 -36.070312 28.765625 -34.25 L 28.765625 -39.65625 L 44.296875 -39.65625 L 44.296875 0 L 28.765625 0 L 28.765625 -5.421875 C 27.773438 -3.585938 26.34375 -2.140625 24.46875 -1.078125 C 22.59375 -0.0234375 20.367188 0.5 17.796875 0.5 C 14.703125 0.5 11.910156 -0.304688 9.421875 -1.921875 C 6.941406 -3.546875 4.984375 -5.894531 3.546875 -8.96875 C 2.117188 -12.039062 1.40625 -15.660156 1.40625 -19.828125 Z M 28.765625 -19.828125 C 28.765625 -21.941406 28.222656 -23.582031 27.140625 -24.75 C 26.066406 -25.925781 24.6875 -26.515625 23 -26.515625 C 21.3125 -26.515625 19.925781 -25.925781 18.84375 -24.75 C 17.769531 -23.582031 17.234375 -21.941406 17.234375 -19.828125 C 17.234375 -17.722656 17.769531 -16.082031 18.84375 -14.90625 C 19.925781 -13.738281 21.3125 -13.15625 23 -13.15625 C 24.6875 -13.15625 26.066406 -13.738281 27.140625 -14.90625 C 28.222656 -16.082031 28.765625 -17.722656 28.765625 -19.828125 Z M 28.765625 -19.828125 "/></g></g></g><g fill="#545454" fill-opacity="1"><g transform="translate(123.589826, 167.694392)"><g><path d="M 28.203125 -13.296875 L 28.203125 0 L 22.296875 0 C 11.421875 0 5.984375 -5.414062 5.984375 -16.25 L 5.984375 -26.65625 L 1.0625 -26.65625 L 1.0625 -39.65625 L 5.984375 -39.65625 L 5.984375 -49.21875 L 21.59375 -49.21875 L 21.59375 -39.65625 L 28.0625 -39.65625 L 28.0625 -26.65625 L 21.59375 -26.65625 L 21.59375 -15.96875 C 21.59375 -15.03125 21.8125 -14.347656 22.25 -13.921875 C 22.695312 -13.503906 23.4375 -13.296875 24.46875 -13.296875 Z M 28.203125 -13.296875 "/></g></g></g><g fill="#545454" fill-opacity="1"><g transform="translate(152.064176, 167.694392)"><g><path d="M 41.90625 -20.1875 C 41.90625 -19.101562 41.835938 -18.070312 41.703125 -17.09375 L 16.59375 -17.09375 C 16.832031 -13.664062 18.265625 -11.953125 20.890625 -11.953125 C 22.578125 -11.953125 23.796875 -12.726562 24.546875 -14.28125 L 41.0625 -14.28125 C 40.5 -11.46875 39.316406 -8.945312 37.515625 -6.71875 C 35.710938 -4.488281 33.4375 -2.726562 30.6875 -1.4375 C 27.945312 -0.144531 24.9375 0.5 21.65625 0.5 C 17.71875 0.5 14.210938 -0.320312 11.140625 -1.96875 C 8.078125 -3.613281 5.6875 -5.96875 3.96875 -9.03125 C 2.257812 -12.101562 1.40625 -15.703125 1.40625 -19.828125 C 1.40625 -23.953125 2.257812 -27.550781 3.96875 -30.625 C 5.6875 -33.695312 8.078125 -36.050781 11.140625 -37.6875 C 14.210938 -39.332031 17.71875 -40.15625 21.65625 -40.15625 C 25.59375 -40.15625 29.097656 -39.34375 32.171875 -37.71875 C 35.242188 -36.101562 37.632812 -33.796875 39.34375 -30.796875 C 41.050781 -27.796875 41.90625 -24.257812 41.90625 -20.1875 Z M 26.09375 -23.90625 C 26.09375 -25.21875 25.671875 -26.210938 24.828125 -26.890625 C 23.984375 -27.578125 22.925781 -27.921875 21.65625 -27.921875 C 18.894531 -27.921875 17.28125 -26.582031 16.8125 -23.90625 Z M 26.09375 -23.90625 "/></g></g></g><g fill="#545454" fill-opacity="1"><g transform="translate(193.194131, 167.694392)"><g><path d="M 21.171875 0.5 C 17.421875 0.5 14.101562 -0.109375 11.21875 -1.328125 C 8.332031 -2.554688 6.046875 -4.25 4.359375 -6.40625 C 2.671875 -8.5625 1.710938 -11 1.484375 -13.71875 L 16.453125 -13.71875 C 16.640625 -12.539062 17.144531 -11.671875 17.96875 -11.109375 C 18.789062 -10.546875 19.832031 -10.265625 21.09375 -10.265625 C 21.894531 -10.265625 22.53125 -10.441406 23 -10.796875 C 23.46875 -11.148438 23.703125 -11.582031 23.703125 -12.09375 C 23.703125 -12.988281 23.207031 -13.625 22.21875 -14 C 21.238281 -14.375 19.578125 -14.796875 17.234375 -15.265625 C 14.367188 -15.828125 12.007812 -16.4375 10.15625 -17.09375 C 8.3125 -17.75 6.695312 -18.875 5.3125 -20.46875 C 3.925781 -22.0625 3.234375 -24.265625 3.234375 -27.078125 C 3.234375 -29.515625 3.878906 -31.726562 5.171875 -33.71875 C 6.460938 -35.707031 8.375 -37.273438 10.90625 -38.421875 C 13.4375 -39.578125 16.503906 -40.15625 20.109375 -40.15625 C 25.453125 -40.15625 29.632812 -38.84375 32.65625 -36.21875 C 35.6875 -33.59375 37.503906 -30.171875 38.109375 -25.953125 L 24.265625 -25.953125 C 24.023438 -27.023438 23.53125 -27.851562 22.78125 -28.4375 C 22.03125 -29.03125 21.023438 -29.328125 19.765625 -29.328125 C 18.960938 -29.328125 18.347656 -29.171875 17.921875 -28.859375 C 17.503906 -28.554688 17.296875 -28.101562 17.296875 -27.5 C 17.296875 -26.695312 17.785156 -26.097656 18.765625 -25.703125 C 19.753906 -25.304688 21.328125 -24.894531 23.484375 -24.46875 C 26.347656 -23.90625 28.765625 -23.269531 30.734375 -22.5625 C 32.703125 -21.863281 34.410156 -20.660156 35.859375 -18.953125 C 37.316406 -17.242188 38.046875 -14.890625 38.046875 -11.890625 C 38.046875 -9.546875 37.363281 -7.4375 36 -5.5625 C 34.644531 -3.6875 32.6875 -2.207031 30.125 -1.125 C 27.570312 -0.0390625 24.585938 0.5 21.171875 0.5 Z M 21.171875 0.5 "/></g></g></g></svg>